HIERARCHY
ROOT Elbow
{
	OFFSET	0.00	0.00	0.00
	CHANNELS 6 Xposition Yposition Zposition Zrotation Xrotation Yrotation
	JOINT L_Wrist
	{
		OFFSET	 0.208349	 0.000000	 0.000000
		CHANNELS 3 Zrotation Xrotation Yrotation
		JOINT L_index_Proximal
		{
			OFFSET	 0.093499	 0.010637	-0.002084
			CHANNELS 3 Zrotation Xrotation Yrotation
			JOINT L_index_b
			{
				OFFSET	 0.033152	 0.000000	 0.000000
				CHANNELS 3 Zrotation Xrotation Yrotation
				JOINT L_index_c
				{
					OFFSET	 0.018651	 0.000000	 0.000000
					CHANNELS 3 Zrotation Xrotation Yrotation
					End Site
					{
						OFFSET	 0.018651	 0.000000	 0.000000
					}
				}
			}
		}
		JOINT L_middle_Proximal
		{
			OFFSET	 0.090632	-0.006115	-0.003750
			CHANNELS 3 Zrotation Xrotation Yrotation
			JOINT L_middle_b
			{
				OFFSET	 0.037194	 0.000000	 0.000000
				CHANNELS 3 Zrotation Xrotation Yrotation
				JOINT L_middle_c
				{
					OFFSET	 0.021943	 0.000000	 0.000000
					CHANNELS 3 Zrotation Xrotation Yrotation
					End Site
					{
						OFFSET	 0.021943	 0.000000	 0.000000
					}
				}
			}
		}
		JOINT L_pinky_Proximal
		{
			OFFSET	 0.074015	-0.035449	-0.000417
			CHANNELS 3 Zrotation Xrotation Yrotation
			JOINT L_pinky_b
			{
				OFFSET	 0.027285	 0.000000	 0.000000
				CHANNELS 3 Zrotation Xrotation Yrotation
				JOINT L_pinky_c
				{
					OFFSET	 0.015093	 0.000000	 0.000000
					CHANNELS 3 Zrotation Xrotation Yrotation
					End Site
					{
						OFFSET	 0.015093	 0.000000	 0.000000
					}
				}
			}
		}
		JOINT L_ring_Proximal
		{
			OFFSET	 0.082801	-0.021859	-0.003750
			CHANNELS 3 Zrotation Xrotation Yrotation
			JOINT L_ring_b
			{
				OFFSET	 0.034478	 0.000000	 0.000000
				CHANNELS 3 Zrotation Xrotation Yrotation
				JOINT L_ring_c
				{
					OFFSET	 0.021377	 0.000000	 0.000000
					CHANNELS 3 Zrotation Xrotation Yrotation
					End Site
					{
						OFFSET	 0.021377	 0.000000	 0.000000
					}
				}
			}
		}
		JOINT L_thumb_Proximal
		{
			OFFSET	 0.030306	 0.018528	 0.004584
			CHANNELS 3 Zrotation Xrotation Yrotation
			JOINT L_thumb_a
			{
				OFFSET	 0.038520	 0.000000	 0.000000
				CHANNELS 3 Zrotation Xrotation Yrotation
				JOINT L_thumb_b
				{
					OFFSET	 0.026310	 0.000000	 0.000000
					CHANNELS 3 Zrotation Xrotation Yrotation
					End Site
					{
						OFFSET	 0.026310	 0.000000	 0.000000
					}
				}
			}
		}
	}
}
MOTION
Frames:    12
Frame Time: 0.01666667
-0.684551	-0.269527	 0.680159	 53.698470	 49.578080	-168.501700	 16.717660	 4.604957	 27.180420	 7.216269	-4.035669	-47.670170	 0.315189	-0.139186	-47.650530	 1.500918	-0.345110	-25.896910	-9.417097	-8.582860	-19.293460	-0.049381	 0.024357	-52.516630	-1.713553	 0.455764	-29.786750	-26.709490	-19.873900	-26.875290	 0.713865	-0.294966	-44.899720	 3.130076	-1.061525	-37.460220	-14.367020	-12.103520	-8.672303	-1.091194	 0.412832	-41.445580	-1.663649	 0.426830	-28.777330	 63.065300	 44.911490	-64.375370	 4.609852	-0.186113	-4.621051	-0.084292	 0.009965	-13.485290
-0.684015	-0.269820	 0.679807	 53.480100	 49.861240	-168.228800	 16.577540	 4.571842	 26.968220	 7.147172	-3.998307	-47.676590	 0.366775	-0.161448	-47.516460	 1.506706	-0.349293	-26.103170	-9.343657	-8.600960	-19.562560	-0.281027	 0.138647	-52.518710	-1.846562	 0.496660	-30.105950	-26.898930	-19.828470	-29.171950	 0.384804	-0.165886	-46.677330	 2.372930	-0.857152	-39.731310	-14.221300	-12.160590	-9.564952	-1.278589	 0.491812	-42.074630	-2.106200	 0.562028	-29.869910	 63.057460	 44.928800	-64.350590	 4.760892	-0.190483	-4.579488	 0.075039	-0.008579	-13.042230
-0.683910	-0.269992	 0.679676	 53.405870	 49.877960	-168.109700	 16.500660	 4.556666	 26.871140	 7.144348	-3.993209	-47.636870	 0.380241	-0.167259	-47.490180	 1.475927	-0.343055	-26.168660	-9.367150	-8.595184	-19.689660	-0.349576	 0.172758	-52.595360	-1.870047	 0.505660	-30.259150	-26.957210	-19.813690	-30.128990	 0.248903	-0.109108	-47.379920	 2.199096	-0.813603	-40.611220	-14.179710	-12.184230	-9.992211	-1.304931	 0.504656	-42.282700	-2.227833	 0.601637	-30.218330	 63.069470	 44.965740	-64.257480	 4.831407	-0.190670	-4.517130	 0.110891	-0.012501	-12.859620
-0.684040	-0.270497	 0.679215	 53.184270	 49.913020	-167.792900	 16.306540	 4.531363	 26.709260	 7.081664	-3.961164	-47.660690	 0.450838	-0.198386	-47.500890	 1.451916	-0.340120	-26.367660	-9.206056	-8.638926	-20.901280	-0.446236	 0.222075	-52.915780	-2.059827	 0.563319	-30.583820	-27.146970	-19.757550	-32.687780	-0.109008	 0.050036	-49.219850	 2.008332	-0.791517	-43.017780	-14.190340	-12.239800	-11.427940	-1.568253	 0.616029	-42.883220	-2.620714	 0.733560	-31.264890	 63.114190	 45.033650	-64.058040	 4.962000	-0.190710	-4.399633	 0.134267	-0.014870	-12.634680
-0.684225	-0.270516	 0.679048	 52.959660	 50.408520	-167.575000	 16.362910	 4.499060	 26.502940	 6.960903	-3.894434	-47.769690	 0.511773	-0.224962	-47.452610	 1.551699	-0.366530	-26.593070	-9.073496	-8.666703	-21.644280	-0.623848	 0.310316	-52.858850	-2.129895	 0.583145	-30.615940	-27.281470	-19.702940	-34.051680	-0.135929	 0.062804	-49.527610	 2.167629	-0.875413	-43.986730	-14.140550	-12.282280	-12.490600	-1.737828	 0.685670	-43.039430	-2.905315	 0.823852	-31.629670	 62.942200	 45.109960	-64.140010	 5.162655	-0.200580	-4.446798	 0.114090	-0.012417	-12.340710
-0.684413	-0.270291	 0.678791	 52.250900	 52.085660	-166.944800	 16.717980	 4.415609	 25.971760	 6.494678	-3.695415	-48.517970	 0.407204	-0.176375	-46.770980	 1.343660	-0.316736	-26.520440	-8.786962	-8.752924	-23.793600	-1.064843	 0.521902	-52.240800	-1.949618	 0.534463	-30.670440	-27.540690	-19.601220	-36.451500	-0.250071	 0.118072	-50.374380	 2.214922	-0.933307	-45.742630	-14.052560	-12.400970	-15.078250	-2.234621	 0.889160	-43.362440	-3.811528	 1.102297	-32.213950	 62.569650	 45.169950	-64.490300	 5.495623	-0.227257	-4.733092	 0.223772	-0.023315	-11.885220
-0.684315	-0.270191	 0.678665	 51.939850	 52.809100	-166.673600	 16.875160	 4.382389	 25.761230	 6.289289	-3.608972	-48.789900	 0.366671	-0.157575	-46.456200	 1.198195	-0.282387	-26.519080	-8.579174	-8.826394	-24.776370	-1.066209	 0.516581	-51.743430	-1.858949	 0.507998	-30.575840	-27.624770	-19.571260	-37.466200	-0.255564	 0.122145	-50.968120	 2.236479	-0.963263	-46.633750	-13.973590	-12.488590	-16.640370	-2.451950	 0.985103	-43.739590	-3.924041	 1.150703	-32.661970	 62.459110	 45.235680	-64.467670	 5.542776	-0.235426	-4.860711	 0.386575	-0.039894	-11.796230
-0.684515	-0.269987	 0.678440	 51.062870	 54.601650	-165.909000	 17.412230	 4.305839	 25.277310	 5.879890	-3.418915	-49.451170	 0.234417	-0.099042	-45.753640	 0.976762	-0.227387	-26.206730	-8.238335	-8.954700	-27.938890	-0.740273	 0.349545	-50.675100	-1.678379	 0.449023	-29.975170	-27.836000	-19.470650	-39.016740	-0.223915	 0.108892	-51.800620	 2.110168	-0.927770	-47.474660	-14.038900	-12.603960	-19.972100	-3.079853	 1.260682	-44.493190	-3.007524	 0.907753	-33.614290	 61.968470	 45.367210	-64.833670	 5.600604	-0.260747	-5.327023	 0.727121	-0.073086	-11.473700
-0.684486	-0.270026	 0.678353	 50.582690	 55.514220	-165.498300	 17.628650	 4.281914	 25.126920	 5.647408	-3.360651	-50.104890	 0.298708	-0.124468	-45.225900	 0.826614	-0.190284	-25.924000	-8.043385	-9.078592	-30.273370	-0.765468	 0.357526	-50.109600	-1.521394	 0.404110	-29.757630	-27.953540	-19.444560	-39.776170	-0.082881	 0.040421	-51.997010	 2.063126	-0.905576	-47.392750	-14.188530	-12.671680	-21.880720	-3.380511	 1.388057	-44.631770	-2.897717	 0.880898	-33.816740	 61.548730	 45.402030	-65.199650	 5.635201	-0.270663	-5.495204	 0.892755	-0.087502	-11.194240
-0.684697	-0.270063	 0.677989	 49.721370	 56.969270	-164.696200	 18.089340	 4.227176	 24.782620	 4.806889	-2.957358	-51.731800	 0.184408	-0.074314	-43.852170	 0.032068	-0.007331	-25.497650	-7.577531	-9.314447	-35.365690	-0.302141	 0.135668	-48.495860	-1.132432	 0.298109	-29.507320	-27.988700	-19.393420	-41.292830	 0.290409	-0.142808	-52.350870	 2.001848	-0.878463	-47.383230	-14.484890	-12.778370	-27.205010	-3.601972	 1.490626	-44.952760	-2.408551	 0.743025	-34.292870	 61.093610	 45.566910	-65.501720	 5.836474	-0.291552	-5.714561	 1.270149	-0.122785	-11.044230
-0.684932	-0.269782	 0.677850	 49.521730	 57.295900	-164.454300	 18.280000	 4.205841	 24.648710	 4.363811	-2.770840	-52.715120	 0.209466	-0.080827	-42.171610	-0.384250	 0.085891	-25.245410	-7.653857	-9.355483	-38.203670	-0.204019	 0.087593	-46.652560	-1.345231	 0.345011	-28.772240	-28.003110	-19.395070	-42.497360	 0.325746	-0.161566	-52.773480	 1.887672	-0.833702	-47.661620	-14.992240	-12.775200	-31.131860	-3.429958	 1.416349	-44.873510	-2.359971	 0.724361	-34.126820	 61.005440	 45.641770	-65.391320	 5.667427	-0.285450	-5.761636	 1.448181	-0.139201	-10.981990
-0.685226	-0.269860	 0.677513	 49.232960	 57.621910	-164.029200	 18.431710	 4.160000	 24.361620	 3.514243	-2.344045	-54.148670	 0.571093	-0.207001	-39.850710	-1.683648	 0.352863	-23.672880	-7.968042	-9.316241	-43.168310	 0.525302	-0.213196	-44.179610	-1.445312	 0.362392	-28.151450	-28.582140	-19.106370	-46.449510	-0.426849	 0.223059	-55.174330	 2.225365	-1.009389	-48.784110	-16.736600	-12.378220	-41.332210	-2.949386	 1.331541	-48.595510	-0.346028	 0.114323	-36.898010	 60.874510	 45.841010	-65.066750	 5.565959	-0.287523	-5.909338	 1.814182	-0.173950	-10.954360
